<mxfile host="app.diagrams.net" modified="2020-12-29T16:47:35.268Z" agent="5.0 (Windows NT 10.0; Win64; x64) AppleWebKit/537.36 (KHTML, like Gecko) Chrome/87.0.4280.88 Safari/537.36" etag="yATVGEvkP6oz2V3Ifl11" version="14.1.1" type="github">
  <diagram id="f8MVyptuScenKhveqK7V" name="Page-1">
    <mxGraphModel dx="2258" dy="974" grid="1" gridSize="10" guides="1" tooltips="1" connect="1" arrows="1" fold="1" page="1" pageScale="1" pageWidth="827" pageHeight="1169" math="0" shadow="0">
      <root>
        <mxCell id="0" />
        <mxCell id="1" parent="0" />
        <mxCell id="oib-zXTwtRSbl9t0aG-o-26" style="edgeStyle=orthogonalEdgeStyle;rounded=0;orthogonalLoop=1;jettySize=auto;html=1;exitX=0.5;exitY=1;exitDx=0;exitDy=0;entryX=0.5;entryY=0;entryDx=0;entryDy=0;" edge="1" parent="1" source="oib-zXTwtRSbl9t0aG-o-1" target="oib-zXTwtRSbl9t0aG-o-3">
          <mxGeometry relative="1" as="geometry" />
        </mxCell>
        <mxCell id="oib-zXTwtRSbl9t0aG-o-27" style="edgeStyle=orthogonalEdgeStyle;rounded=0;orthogonalLoop=1;jettySize=auto;html=1;exitX=0.5;exitY=1;exitDx=0;exitDy=0;entryX=0.5;entryY=0;entryDx=0;entryDy=0;" edge="1" parent="1" source="oib-zXTwtRSbl9t0aG-o-1" target="oib-zXTwtRSbl9t0aG-o-2">
          <mxGeometry relative="1" as="geometry" />
        </mxCell>
        <mxCell id="oib-zXTwtRSbl9t0aG-o-28" style="edgeStyle=orthogonalEdgeStyle;rounded=0;orthogonalLoop=1;jettySize=auto;html=1;exitX=0.5;exitY=1;exitDx=0;exitDy=0;" edge="1" parent="1" source="oib-zXTwtRSbl9t0aG-o-1" target="oib-zXTwtRSbl9t0aG-o-4">
          <mxGeometry relative="1" as="geometry" />
        </mxCell>
        <mxCell id="oib-zXTwtRSbl9t0aG-o-1" value="基于人工智能和传感器技术的盆栽智能养护系统" style="rounded=0;whiteSpace=wrap;html=1;" vertex="1" parent="1">
          <mxGeometry x="420" y="60" width="270" height="60" as="geometry" />
        </mxCell>
        <mxCell id="oib-zXTwtRSbl9t0aG-o-30" style="edgeStyle=orthogonalEdgeStyle;rounded=0;orthogonalLoop=1;jettySize=auto;html=1;exitX=0.5;exitY=1;exitDx=0;exitDy=0;entryX=0.5;entryY=0;entryDx=0;entryDy=0;" edge="1" parent="1" source="oib-zXTwtRSbl9t0aG-o-2" target="oib-zXTwtRSbl9t0aG-o-6">
          <mxGeometry relative="1" as="geometry" />
        </mxCell>
        <mxCell id="oib-zXTwtRSbl9t0aG-o-31" style="edgeStyle=orthogonalEdgeStyle;rounded=0;orthogonalLoop=1;jettySize=auto;html=1;exitX=0.5;exitY=1;exitDx=0;exitDy=0;entryX=0.5;entryY=0;entryDx=0;entryDy=0;" edge="1" parent="1" source="oib-zXTwtRSbl9t0aG-o-2" target="oib-zXTwtRSbl9t0aG-o-9">
          <mxGeometry relative="1" as="geometry" />
        </mxCell>
        <mxCell id="oib-zXTwtRSbl9t0aG-o-32" style="edgeStyle=orthogonalEdgeStyle;rounded=0;orthogonalLoop=1;jettySize=auto;html=1;exitX=0.5;exitY=1;exitDx=0;exitDy=0;" edge="1" parent="1" source="oib-zXTwtRSbl9t0aG-o-2" target="oib-zXTwtRSbl9t0aG-o-10">
          <mxGeometry relative="1" as="geometry" />
        </mxCell>
        <mxCell id="oib-zXTwtRSbl9t0aG-o-33" style="edgeStyle=orthogonalEdgeStyle;rounded=0;orthogonalLoop=1;jettySize=auto;html=1;exitX=0.5;exitY=1;exitDx=0;exitDy=0;" edge="1" parent="1" source="oib-zXTwtRSbl9t0aG-o-2" target="oib-zXTwtRSbl9t0aG-o-13">
          <mxGeometry relative="1" as="geometry" />
        </mxCell>
        <mxCell id="oib-zXTwtRSbl9t0aG-o-36" style="edgeStyle=orthogonalEdgeStyle;rounded=0;orthogonalLoop=1;jettySize=auto;html=1;exitX=0.5;exitY=1;exitDx=0;exitDy=0;" edge="1" parent="1" source="oib-zXTwtRSbl9t0aG-o-2" target="oib-zXTwtRSbl9t0aG-o-14">
          <mxGeometry relative="1" as="geometry" />
        </mxCell>
        <mxCell id="oib-zXTwtRSbl9t0aG-o-2" value="普通用户模块" style="rounded=0;whiteSpace=wrap;html=1;" vertex="1" parent="1">
          <mxGeometry x="100" y="200" width="120" height="60" as="geometry" />
        </mxCell>
        <mxCell id="oib-zXTwtRSbl9t0aG-o-29" style="edgeStyle=orthogonalEdgeStyle;rounded=0;orthogonalLoop=1;jettySize=auto;html=1;exitX=0.5;exitY=1;exitDx=0;exitDy=0;" edge="1" parent="1" source="oib-zXTwtRSbl9t0aG-o-3" target="oib-zXTwtRSbl9t0aG-o-16">
          <mxGeometry relative="1" as="geometry" />
        </mxCell>
        <mxCell id="oib-zXTwtRSbl9t0aG-o-3" value="商家模块" style="rounded=0;whiteSpace=wrap;html=1;" vertex="1" parent="1">
          <mxGeometry x="495" y="200" width="120" height="60" as="geometry" />
        </mxCell>
        <mxCell id="oib-zXTwtRSbl9t0aG-o-37" style="edgeStyle=orthogonalEdgeStyle;rounded=0;orthogonalLoop=1;jettySize=auto;html=1;exitX=0.5;exitY=1;exitDx=0;exitDy=0;entryX=0.5;entryY=0;entryDx=0;entryDy=0;" edge="1" parent="1" source="oib-zXTwtRSbl9t0aG-o-4" target="oib-zXTwtRSbl9t0aG-o-23">
          <mxGeometry relative="1" as="geometry" />
        </mxCell>
        <mxCell id="oib-zXTwtRSbl9t0aG-o-38" style="edgeStyle=orthogonalEdgeStyle;rounded=0;orthogonalLoop=1;jettySize=auto;html=1;exitX=0.5;exitY=1;exitDx=0;exitDy=0;entryX=0.5;entryY=0;entryDx=0;entryDy=0;" edge="1" parent="1" source="oib-zXTwtRSbl9t0aG-o-4" target="oib-zXTwtRSbl9t0aG-o-21">
          <mxGeometry relative="1" as="geometry" />
        </mxCell>
        <mxCell id="oib-zXTwtRSbl9t0aG-o-39" style="edgeStyle=orthogonalEdgeStyle;rounded=0;orthogonalLoop=1;jettySize=auto;html=1;exitX=0.5;exitY=1;exitDx=0;exitDy=0;entryX=0.5;entryY=0;entryDx=0;entryDy=0;" edge="1" parent="1" source="oib-zXTwtRSbl9t0aG-o-4" target="oib-zXTwtRSbl9t0aG-o-24">
          <mxGeometry relative="1" as="geometry" />
        </mxCell>
        <mxCell id="oib-zXTwtRSbl9t0aG-o-40" style="edgeStyle=orthogonalEdgeStyle;rounded=0;orthogonalLoop=1;jettySize=auto;html=1;exitX=0.5;exitY=1;exitDx=0;exitDy=0;entryX=0.5;entryY=0;entryDx=0;entryDy=0;" edge="1" parent="1" source="oib-zXTwtRSbl9t0aG-o-4" target="oib-zXTwtRSbl9t0aG-o-22">
          <mxGeometry relative="1" as="geometry" />
        </mxCell>
        <mxCell id="oib-zXTwtRSbl9t0aG-o-4" value="管理员模块" style="rounded=0;whiteSpace=wrap;html=1;" vertex="1" parent="1">
          <mxGeometry x="870" y="200" width="120" height="60" as="geometry" />
        </mxCell>
        <mxCell id="oib-zXTwtRSbl9t0aG-o-6" value="商城购物" style="rounded=0;whiteSpace=wrap;html=1;" vertex="1" parent="1">
          <mxGeometry x="-110" y="360" width="70" height="140" as="geometry" />
        </mxCell>
        <mxCell id="oib-zXTwtRSbl9t0aG-o-9" value="社区交流&lt;span style=&quot;color: rgba(0 , 0 , 0 , 0) ; font-family: monospace ; font-size: 0px&quot;&gt;%3CmxGraphModel%3E%3Croot%3E%3CmxCell%20id%3D%220%22%2F%3E%3CmxCell%20id%3D%221%22%20parent%3D%220%22%2F%3E%3CmxCell%20id%3D%222%22%20value%3D%22%E5%95%86%E5%9F%8E%E8%B4%AD%E7%89%A9%22%20style%3D%22rounded%3D0%3BwhiteSpace%3Dwrap%3Bhtml%3D1%3B%22%20vertex%3D%221%22%20parent%3D%221%22%3E%3CmxGeometry%20x%3D%22-50%22%20y%3D%22400%22%20width%3D%2270%22%20height%3D%22140%22%20as%3D%22geometry%22%2F%3E%3C%2FmxCell%3E%3C%2Froot%3E%3C%2FmxGraphModel%3E&lt;/span&gt;" style="rounded=0;whiteSpace=wrap;html=1;" vertex="1" parent="1">
          <mxGeometry x="20" y="360" width="70" height="140" as="geometry" />
        </mxCell>
        <mxCell id="oib-zXTwtRSbl9t0aG-o-10" value="阳台养护" style="rounded=0;whiteSpace=wrap;html=1;" vertex="1" parent="1">
          <mxGeometry x="140" y="360" width="70" height="140" as="geometry" />
        </mxCell>
        <mxCell id="oib-zXTwtRSbl9t0aG-o-13" value="植物百科" style="rounded=0;whiteSpace=wrap;html=1;" vertex="1" parent="1">
          <mxGeometry x="260" y="360" width="70" height="140" as="geometry" />
        </mxCell>
        <mxCell id="oib-zXTwtRSbl9t0aG-o-14" value="个人主页" style="rounded=0;whiteSpace=wrap;html=1;" vertex="1" parent="1">
          <mxGeometry x="390" y="360" width="70" height="140" as="geometry" />
        </mxCell>
        <mxCell id="oib-zXTwtRSbl9t0aG-o-16" value="管理商铺" style="rounded=0;whiteSpace=wrap;html=1;" vertex="1" parent="1">
          <mxGeometry x="520" y="360" width="70" height="140" as="geometry" />
        </mxCell>
        <mxCell id="oib-zXTwtRSbl9t0aG-o-21" value="管理用户&lt;span style=&quot;color: rgba(0 , 0 , 0 , 0) ; font-family: monospace ; font-size: 0px&quot;&gt;%3CmxGraphModel%3E%3Croot%3E%3CmxCell%20id%3D%220%22%2F%3E%3CmxCell%20id%3D%221%22%20parent%3D%220%22%2F%3E%3CmxCell%20id%3D%222%22%20value%3D%22%E6%9F%A5%E8%AF%A2%E7%BB%9F%E8%AE%A1%22%20style%3D%22rounded%3D0%3BwhiteSpace%3Dwrap%3Bhtml%3D1%3B%22%20vertex%3D%221%22%20parent%3D%221%22%3E%3CmxGeometry%20x%3D%22827%22%20y%3D%22380%22%20width%3D%2270%22%20height%3D%22140%22%20as%3D%22geometry%22%2F%3E%3C%2FmxCell%3E%3C%2Froot%3E%3C%2FmxGraphModel%3E&lt;/span&gt;" style="rounded=0;whiteSpace=wrap;html=1;" vertex="1" parent="1">
          <mxGeometry x="800" y="360" width="70" height="140" as="geometry" />
        </mxCell>
        <mxCell id="oib-zXTwtRSbl9t0aG-o-22" value="管理商铺&lt;span style=&quot;color: rgba(0 , 0 , 0 , 0) ; font-family: monospace ; font-size: 0px&quot;&gt;%3CmxGraphModel%3E%3Croot%3E%3CmxCell%20id%3D%220%22%2F%3E%3CmxCell%20id%3D%221%22%20parent%3D%220%22%2F%3E%3CmxCell%20id%3D%222%22%20value%3D%22%E6%9F%A5%E8%AF%A2%E7%BB%9F%E8%AE%A1%22%20style%3D%22rounded%3D0%3BwhiteSpace%3Dwrap%3Bhtml%3D1%3B%22%20vertex%3D%221%22%20parent%3D%221%22%3E%3CmxGeometry%20x%3D%22827%22%20y%3D%22380%22%20width%3D%2270%22%20height%3D%22140%22%20as%3D%22geometry%22%2F%3E%3C%2FmxCell%3E%3C%2Froot%3E%3C%2FmxGraphModel%3E&lt;/span&gt;" style="rounded=0;whiteSpace=wrap;html=1;" vertex="1" parent="1">
          <mxGeometry x="1070" y="360" width="70" height="140" as="geometry" />
        </mxCell>
        <mxCell id="oib-zXTwtRSbl9t0aG-o-23" value="管理植物百科&lt;span style=&quot;color: rgba(0 , 0 , 0 , 0) ; font-family: monospace ; font-size: 0px&quot;&gt;%3CmxGraphModel%3E%3Croot%3E%3CmxCell%20id%3D%220%22%2F%3E%3CmxCell%20id%3D%221%22%20parent%3D%220%22%2F%3E%3CmxCell%20id%3D%222%22%20value%3D%22%E6%9F%A5%E8%AF%A2%E7%BB%9F%E8%AE%A1%22%20style%3D%22rounded%3D0%3BwhiteSpace%3Dwrap%3Bhtml%3D1%3B%22%20vertex%3D%221%22%20parent%3D%221%22%3E%3CmxGeometry%20x%3D%22827%22%20y%3D%22380%22%20width%3D%2270%22%20height%3D%22140%22%20as%3D%22geometry%22%2F%3E%3C%2FmxCell%3E%3C%2Froot%3E%3C%2FmxGraphModel%3E&lt;/span&gt;" style="rounded=0;whiteSpace=wrap;html=1;" vertex="1" parent="1">
          <mxGeometry x="670" y="360" width="70" height="140" as="geometry" />
        </mxCell>
        <mxCell id="oib-zXTwtRSbl9t0aG-o-24" value="通知管理" style="rounded=0;whiteSpace=wrap;html=1;" vertex="1" parent="1">
          <mxGeometry x="940" y="360" width="70" height="140" as="geometry" />
        </mxCell>
      </root>
    </mxGraphModel>
  </diagram>
</mxfile>
